<svg width="42" height="52" viewBox="0 0 42 52" fill="none" xmlns="http://www.w3.org/2000/svg">
<g id="Group 1">
<g id="Group">
<path id="Vector" d="M21 0C15.4305 0 10.089 2.19142 6.15076 6.09218C2.21249 9.99294 0 15.2835 0 20.8C0 25.7192 1.05525 28.938 3.9375 32.5L21 52L38.0625 32.5C40.9448 28.938 42 25.7192 42 20.8C42 15.2835 39.7875 9.99294 35.8492 6.09218C31.911 2.19142 26.5695 0 21 0V0Z" fill="#FAFF05"/>
</g>
<g id="Group_2">
<g id="Vector_2">
<path d="M15.6667 20.2991V30.8571C15.6667 31.1602 15.5262 31.4509 15.2761 31.6653C15.0261 31.8796 14.687 32 14.3333 32C13.9797 32 13.6406 31.8796 13.3905 31.6653C13.1405 31.4509 13 31.1602 13 30.8571V17.1424C13.0001 16.9076 13.0846 16.6785 13.242 16.4863C13.3993 16.2941 13.6219 16.1482 13.8795 16.0682C14.1371 15.9883 14.4171 15.9783 14.6815 16.0397C14.9459 16.101 15.1819 16.2306 15.3573 16.4109L21 22.2145L26.6427 16.4109C26.8181 16.2306 27.0541 16.101 27.3185 16.0397C27.5829 15.9783 27.8629 15.9883 28.1205 16.0682C28.3781 16.1482 28.6007 16.2941 28.758 16.4863C28.9154 16.6785 28.9999 16.9076 29 17.1424V30.8571C29 31.1602 28.8595 31.4509 28.6095 31.6653C28.3594 31.8796 28.0203 32 27.6667 32C27.313 32 26.9739 31.8796 26.7239 31.6653C26.4738 31.4509 26.3333 31.1602 26.3333 30.8571V20.2991L22.024 24.7312C21.8989 24.8598 21.7423 24.9633 21.5653 25.0343C21.3884 25.1053 21.1954 25.1421 21 25.1421C20.8046 25.1421 20.6116 25.1053 20.4347 25.0343C20.2577 24.9633 20.1011 24.8598 19.976 24.7312L15.6667 20.2991Z" fill="black"/>
<path d="M15.6667 20.2991V30.8571C15.6667 31.1602 15.5262 31.4509 15.2761 31.6653C15.0261 31.8796 14.687 32 14.3333 32C13.9797 32 13.6406 31.8796 13.3905 31.6653C13.1405 31.4509 13 31.1602 13 30.8571V17.1424C13.0001 16.9076 13.0846 16.6785 13.242 16.4863C13.3993 16.2941 13.6219 16.1482 13.8795 16.0682C14.1371 15.9883 14.4171 15.9783 14.6815 16.0397C14.9459 16.101 15.1819 16.2306 15.3573 16.4109L21 22.2145L26.6427 16.4109C26.8181 16.2306 27.0541 16.101 27.3185 16.0397C27.5829 15.9783 27.8629 15.9883 28.1205 16.0682C28.3781 16.1482 28.6007 16.2941 28.758 16.4863C28.9154 16.6785 28.9999 16.9076 29 17.1424V30.8571C29 31.1602 28.8595 31.4509 28.6095 31.6653C28.3594 31.8796 28.0203 32 27.6667 32C27.313 32 26.9739 31.8796 26.7239 31.6653C26.4738 31.4509 26.3333 31.1602 26.3333 30.8571V20.2991L22.024 24.7312C21.8989 24.8598 21.7423 24.9633 21.5653 25.0343C21.3884 25.1053 21.1954 25.1421 21 25.1421C20.8046 25.1421 20.6116 25.1053 20.4347 25.0343C20.2577 24.9633 20.1011 24.8598 19.976 24.7312L15.6667 20.2991Z" stroke="black"/>
</g>
</g>
</g>
</svg>
