<svg width="38" height="39" viewBox="0 0 38 39" fill="none" xmlns="http://www.w3.org/2000/svg">
<path fill-rule="evenodd" clip-rule="evenodd" d="M18.8679 0.0849609C8.44744 0.0849609 0 8.75194 0 19.4432C0 30.1345 8.44744 38.8014 18.8679 38.8014C29.2883 38.8014 37.7358 30.1345 37.7358 19.4432C37.7358 8.75194 29.2883 0.0849609 18.8679 0.0849609ZM14.7193 9.18094C15.7926 9.13083 16.1356 9.11857 18.8686 9.11857H18.8654C21.5992 9.11857 21.9409 9.13083 23.0143 9.18094C24.0856 9.23128 24.8173 9.40529 25.4588 9.6606C26.1212 9.92409 26.681 10.2768 27.2408 10.8511C27.8005 11.425 28.1443 12.001 28.4022 12.6801C28.6496 13.3366 28.8194 14.0868 28.8697 15.1859C28.9179 16.2872 28.9305 16.6391 28.9305 19.4431C28.9305 22.247 28.9179 22.5981 28.8697 23.6993C28.8194 24.798 28.6496 25.5485 28.4022 26.2052C28.1443 26.884 27.8005 27.46 27.2408 28.0339C26.6816 28.6082 26.121 28.9618 25.4594 29.2255C24.8191 29.4809 24.0871 29.6549 23.0158 29.7052C21.9424 29.7553 21.6005 29.7676 18.8673 29.7676C16.1346 29.7676 15.7918 29.7553 14.7184 29.7052C13.6473 29.6549 12.9159 29.4809 12.2756 29.2255C11.6142 28.9618 11.0528 28.6082 10.4937 28.0339C9.93411 27.46 9.59029 26.884 9.33305 26.205C9.08442 25.5485 8.91481 24.7983 8.86555 23.6991C8.81691 22.5978 8.80475 22.247 8.80475 19.4431C8.80475 16.6391 8.81733 16.287 8.86534 15.1857C8.91355 14.087 9.08337 13.3366 9.33285 12.6799C9.59071 12.001 9.93453 11.425 10.4943 10.8511C11.0536 10.2771 11.615 9.92431 12.2769 9.6606C12.9167 9.40529 13.648 9.23128 14.7193 9.18094Z" fill="white"/>
<path fill-rule="evenodd" clip-rule="evenodd" d="M17.966 10.9789C18.1413 10.9786 18.3299 10.9787 18.5334 10.9788L18.8687 10.9789C21.5556 10.9789 21.874 10.9888 22.935 11.0383C23.9162 11.0843 24.4487 11.2525 24.8034 11.3938C25.273 11.5809 25.6078 11.8046 25.9598 12.166C26.312 12.5274 26.53 12.8715 26.7128 13.3533C26.8506 13.7168 27.0147 14.2632 27.0594 15.2698C27.1076 16.3582 27.1181 16.6851 27.1181 19.4405C27.1181 22.1958 27.1076 22.5228 27.0594 23.6111C27.0145 24.6178 26.8506 25.1641 26.7128 25.5276C26.5304 26.0094 26.312 26.3525 25.9598 26.7137C25.6076 27.075 25.2732 27.2987 24.8034 27.4858C24.4491 27.6278 23.9162 27.7956 22.935 27.8416C21.8742 27.8911 21.5556 27.9018 18.8687 27.9018C16.1817 27.9018 15.8633 27.8911 14.8025 27.8416C13.8213 27.7951 13.2888 27.6269 12.9339 27.4856C12.4643 27.2985 12.1289 27.0748 11.7767 26.7134C11.4244 26.3521 11.2064 26.0088 11.0236 25.5268C10.8859 25.1633 10.7217 24.6169 10.6771 23.6103C10.6288 22.5219 10.6192 22.195 10.6192 19.4379C10.6192 16.6808 10.6288 16.3556 10.6771 15.2672C10.7219 14.2606 10.8859 13.7142 11.0236 13.3503C11.206 12.8685 11.4244 12.5243 11.7767 12.163C12.1289 11.8016 12.4643 11.5779 12.9339 11.3904C13.2886 11.2484 13.8213 11.0806 14.8025 11.0344C15.7308 10.9914 16.0905 10.9785 17.966 10.9763V10.9789ZM24.2399 12.6936C23.5732 12.6936 23.0323 13.2479 23.0323 13.9321C23.0323 14.6161 23.5732 15.171 24.2399 15.171C24.9066 15.171 25.4475 14.6161 25.4475 13.9321C25.4475 13.2481 24.9066 12.6932 24.2399 12.6932V12.6936ZM13.7012 19.4433C13.7012 16.5153 16.0149 14.1414 18.8687 14.1412C21.7226 14.1412 24.0358 16.5152 24.0358 19.4433C24.0358 22.3714 21.7228 24.7443 18.8689 24.7443C16.015 24.7443 13.7012 22.3714 13.7012 19.4433Z" fill="white"/>
<path fill-rule="evenodd" clip-rule="evenodd" d="M18.8689 16.0017C20.7213 16.0017 22.2232 17.5424 22.2232 19.4432C22.2232 21.3438 20.7213 22.8847 18.8689 22.8847C17.0163 22.8847 15.5146 21.3438 15.5146 19.4432C15.5146 17.5424 17.0163 16.0017 18.8689 16.0017V16.0017Z" fill="white"/>
</svg>
