<svg width="38" height="39" viewBox="0 0 38 39" fill="none" xmlns="http://www.w3.org/2000/svg">
<path fill-rule="evenodd" clip-rule="evenodd" d="M19.0442 0.0849609C8.62371 0.0849609 0.17627 8.75194 0.17627 19.4432C0.17627 30.1345 8.62371 38.8014 19.0442 38.8014C29.4646 38.8014 37.912 30.1345 37.912 19.4432C37.912 8.75194 29.4646 0.0849609 19.0442 0.0849609ZM9.23352 16.1178H13.5094V29.2989H9.23352V16.1178ZM13.7912 12.0406C13.7635 10.7482 12.8627 9.76381 11.3999 9.76381C9.93719 9.76381 8.9809 10.7482 8.9809 12.0406C8.9809 13.3062 9.90893 14.3189 11.3444 14.3189H11.3718C12.8627 14.3189 13.7912 13.3062 13.7912 12.0406ZM24.0075 15.8088C26.8212 15.8088 28.9306 17.6931 28.9306 21.7418L28.9304 29.2994H24.6547V22.2475C24.6547 20.4762 24.036 19.2676 22.4881 19.2676C21.3068 19.2676 20.6032 20.0824 20.2942 20.8694C20.1811 21.1514 20.1533 21.5444 20.1533 21.9384V29.2998H15.877C15.877 29.2998 15.9333 17.3555 15.877 16.1187H20.1533V17.9857C20.7208 17.0882 21.7373 15.8088 24.0075 15.8088Z" fill="white"/>
</svg>
