<svg width="38" height="39" viewBox="0 0 38 39" fill="none" xmlns="http://www.w3.org/2000/svg">
<path fill-rule="evenodd" clip-rule="evenodd" d="M18.9558 0.0849609C8.53533 0.0849609 0.0878906 8.75194 0.0878906 19.4432C0.0878906 30.1345 8.53533 38.8014 18.9558 38.8014C29.3762 38.8014 37.8237 30.1345 37.8237 19.4432C37.8237 8.75194 29.3762 0.0849609 18.9558 0.0849609ZM18.4302 16.4886L18.3906 15.8187C18.2718 14.0826 19.3144 12.4969 20.9641 11.8817C21.5712 11.663 22.6006 11.6357 23.2737 11.827C23.5377 11.9091 24.0392 12.1825 24.3955 12.4285L25.0422 12.8796L25.7549 12.6473C26.1508 12.5242 26.6787 12.3192 26.9163 12.1825C27.1407 12.0594 27.3386 11.9911 27.3386 12.0321C27.3386 12.2645 26.8503 13.0574 26.4412 13.4948C25.8869 14.11 26.0452 14.1646 27.167 13.7545C27.8401 13.5221 27.8533 13.5221 27.7214 13.7819C27.6422 13.9186 27.233 14.397 26.7975 14.8345C26.0584 15.5863 26.0188 15.6684 26.0188 16.2972C26.0188 17.2678 25.5701 19.291 25.1214 20.3982C24.29 22.4761 22.5083 24.6223 20.7266 25.7023C18.219 27.2197 14.88 27.6024 12.0689 26.7139C11.1318 26.4131 9.52173 25.6476 9.52173 25.5109C9.52173 25.4699 10.01 25.4152 10.6039 25.4015C11.8445 25.3742 13.0851 25.0188 14.1409 24.3899L14.8536 23.9525L14.0353 23.6654C12.8739 23.2553 11.8313 22.3121 11.5674 21.4235C11.4882 21.1364 11.5146 21.1228 12.2537 21.1228L13.0191 21.1091L12.3724 20.7947C11.607 20.3982 10.9075 19.7284 10.5643 19.0449C10.3136 18.5528 9.99685 17.3088 10.0892 17.2131C10.1156 17.1721 10.3928 17.2541 10.7095 17.3635C11.6202 17.7052 11.7389 17.6232 11.211 17.049C10.2212 16.0101 9.91766 14.4654 10.3928 13.0027L10.6171 12.3465L11.4882 13.2351C13.2699 15.0259 15.3683 16.0921 17.7703 16.4065L18.4302 16.4886Z" fill="white"/>
</svg>
