<svg xmlns="http://www.w3.org/2000/svg"  viewBox="0 0 64 64" width="60px" height="60px"><linearGradient id="hfytQaYr7UVB7~~FmvXdha" x1="32" x2="32" y1="16" y2="47" gradientUnits="userSpaceOnUse"><stop offset="0" stop-color="#1a6dff"/><stop offset="1" stop-color="#c822ff"/></linearGradient><path fill="url(#hfytQaYr7UVB7~~FmvXdha)" d="M63.828,16.439C63.642,16.165,63.332,16,63,16H27.295c-6.713,0-12.909,3.646-16.169,9.515	C11.04,25.669,11,25.835,11,26H1c-0.509,0-0.937,0.383-0.994,0.889c-0.057,0.506,0.275,0.974,0.772,1.087L9,30L0.152,45.47	c-0.2,0.32-0.203,0.726-0.007,1.048C0.327,46.818,0.652,47,1,47c0.025,0,0.051-0.001,0.077-0.003l13-1	c0.3-0.023,0.574-0.181,0.746-0.428L17,42l27.222-3.396c3.422-0.428,6.402-2.369,8.178-5.326l3.458-5.764	c0.062-0.104,0.103-0.213,0.125-0.324c2.991-1.166,5.428-3.523,6.676-6.643l1.271-3.177C64.052,17.063,64.014,16.714,63.828,16.439z M13.449,44.039L2.897,44.852l8.147-14.348c0.007-0.011,0.007-0.025,0.014-0.036L21,32L13.449,44.039z M18.729,39.768l4.758-7.846	l0.01-0.015c0.064-0.096,0.104-0.203,0.131-0.313c0.006-0.024,0.012-0.048,0.016-0.072c0.019-0.11,0.022-0.221,0.004-0.331	c-0.003-0.019-0.01-0.036-0.014-0.054c-0.012-0.052-0.021-0.104-0.041-0.154c-0.018-0.044-0.044-0.082-0.067-0.122	c-0.012-0.02-0.02-0.041-0.033-0.06c-0.064-0.096-0.144-0.177-0.236-0.246c-0.009-0.007-0.014-0.017-0.023-0.024	c-0.011-0.008-0.025-0.008-0.036-0.016c-0.095-0.061-0.198-0.112-0.311-0.138l-0.017-0.004c0,0-0.001,0-0.001,0L9.912,28h24.179	l-7.469,10.789L18.729,39.768z M37.16,37.472l-7.875,0.984L36.524,28h7.182l-6.529,9.431C37.169,37.443,37.168,37.459,37.16,37.472z M50.685,32.249c-1.457,2.427-3.903,4.021-6.711,4.371l-4.162,0.52L46.139,28h5.512c0.558,0,1.109-0.038,1.65-0.113L50.685,32.249z M60.801,19.806C59.296,23.568,55.704,26,51.651,26H13.155c2.974-4.949,8.341-8,14.141-8h34.228L60.801,19.806z"/><linearGradient id="hfytQaYr7UVB7~~FmvXdhb" x1="12.09" x2="12.09" y1="32.652" y2="42.572" gradientUnits="userSpaceOnUse"><stop offset="0" stop-color="#6dc7ff"/><stop offset="1" stop-color="#e6abff"/></linearGradient><polygon fill="url(#hfytQaYr7UVB7~~FmvXdhb)" points="17.69,33.512 12.29,42.122 6.49,42.572 12.12,32.652"/><g><linearGradient id="hfytQaYr7UVB7~~FmvXdhc" x1="37.905" x2="37.905" y1="20" y2="24" gradientUnits="userSpaceOnUse"><stop offset="0" stop-color="#6dc7ff"/><stop offset="1" stop-color="#e6abff"/></linearGradient><path fill="url(#hfytQaYr7UVB7~~FmvXdhc)" d="M58.5,20c-1.38,2.46-3.97,4-6.85,4H17.31c2.66-2.52,6.24-4,9.99-4H58.5z"/></g></svg>