<svg fill="#000000" xmlns="http://www.w3.org/2000/svg"  viewBox="0 0 50 50" width="50px" height="50px"><path d="M 9 4 A 1.0001 1.0001 0 0 0 8.0175781 4.8085938 L 0.017578125 45.808594 A 1.0001 1.0001 0 0 0 1 47 L 41 47 A 1.0001 1.0001 0 0 0 41.982422 46.191406 L 49.982422 5.1914062 A 1.0001 1.0001 0 0 0 49 4 L 9 4 z M 9.8242188 6 L 47.785156 6 L 40.175781 45 L 2.2148438 45 L 9.8242188 6 z M 21 8 C 17.226097 8 14.460006 9.2314898 12.662109 10.847656 C 10.864213 12.463823 10 14.392832 10 16 A 1.0001 1.0001 0 0 0 11 17 L 16 17 A 1.0001 1.0001 0 0 0 17 16 C 17 16.09297 16.98681 15.590654 17.404297 15.105469 C 17.821786 14.620284 18.722512 14 21 14 C 21.8855 14 22.778355 14.167594 23.341797 14.419922 C 23.623518 14.546086 23.814139 14.690324 23.904297 14.792969 C 23.917077 14.807519 23.908399 14.810316 23.917969 14.822266 C 23.917969 14.822266 23.916016 14.824219 23.916016 14.824219 C 23.676152 14.963846 23.228554 15.14224 22.714844 15.302734 C 21.687424 15.623723 20.397672 15.893618 19.501953 16.121094 C 17.282294 16.684477 14.628376 17.311154 12.382812 18.527344 C 10.137249 19.743533 8.2456674 21.705816 8.0234375 24.640625 A 1.0001 1.0001 0 0 0 8.0234375 24.642578 C 7.9687465 25.384078 8 27.013672 8 27.013672 A 1.0001 1.0001 0 0 0 9 28 L 21.865234 28 L 19.023438 40.783203 A 1.0001 1.0001 0 0 0 20 42 L 25 42 A 1.0001 1.0001 0 0 0 25.976562 41.216797 L 27.007812 36.570312 L 27.773438 35.900391 L 31.142578 41.513672 A 1.0001 1.0001 0 0 0 32 42 L 38 42 A 1.0001 1.0001 0 0 0 38.863281 40.496094 L 33.341797 31.029297 L 41.658203 23.751953 A 1.0001 1.0001 0 0 0 41 22 L 35 22 A 1.0001 1.0001 0 0 0 34.367188 22.226562 L 29.269531 26.396484 L 29.976562 23.216797 A 1.0001 1.0001 0 0 0 29 22 L 26 22 L 24 22 L 20.792969 22 C 20.872809 21.97957 20.897717 21.95799 20.978516 21.9375 C 22.895552 21.450571 25.263497 20.928466 27.253906 19.966797 C 28.249111 19.485962 29.162715 18.889011 29.857422 18.074219 C 30.552128 17.259426 31 16.199567 31 15 C 31 12.433199 29.439712 10.551134 27.478516 9.4824219 C 25.51732 8.4137101 23.13575 8 21 8 z M 21 10 C 22.86425 10 24.98268 10.399743 26.521484 11.238281 C 28.060288 12.076819 29 13.195801 29 15 C 29 15.734933 28.773481 16.264167 28.335938 16.777344 C 27.898394 17.29052 27.222061 17.761475 26.384766 18.166016 C 24.710175 18.975096 22.443292 19.500976 20.486328 19.998047 C 17.97665 20.634516 15.843426 21.207521 14.263672 22.138672 A 1.0001 1.0001 0 0 0 14.771484 24 L 24 24 L 26 24 L 27.753906 24 L 26.691406 28.783203 A 1.0001 1.0001 0 0 0 28.300781 29.773438 L 35.357422 24 L 38.339844 24 L 31.404297 30.068359 A 1.0001 1.0001 0 0 0 31.197266 31.324219 L 36.259766 40 L 32.566406 40 L 28.873047 33.845703 A 1.0001 1.0001 0 0 0 27.357422 33.607422 L 25.445312 35.28125 A 1.0001 1.0001 0 0 0 25.126953 35.816406 L 24.197266 40 L 21.246094 40 L 24.087891 27.216797 A 1.0001 1.0001 0 0 0 23.111328 26 L 10.007812 26 C 10.007825 25.466214 10.001478 25.012292 10.017578 24.792969 L 10.017578 24.791016 C 10.183983 22.603099 11.427156 21.317888 13.333984 20.285156 C 15.24142 19.252096 17.7578 18.628164 19.994141 18.060547 C 20.803422 17.855023 22.14017 17.579152 23.3125 17.212891 C 23.898665 17.02976 24.443395 16.831263 24.921875 16.552734 C 25.161115 16.41347 25.388232 16.254464 25.595703 16.017578 C 25.803141 15.780739 26 15.420583 26 15 C 26 14.417878 25.755545 13.870058 25.408203 13.474609 C 25.060861 13.07916 24.626482 12.805414 24.158203 12.595703 C 23.221645 12.176281 22.1145 12 21 12 C 18.334488 12 16.735433 12.816716 15.888672 13.800781 C 15.523 14.225747 15.357323 14.63387 15.230469 15 L 12.28125 15 C 12.54119 14.179047 13.004548 13.229014 13.998047 12.335938 C 15.4204 11.057353 17.654903 10 21 10 z"/></svg>